<svg xmlns="http://www.w3.org/2000/svg" xmlns:xlink="http://www.w3.org/1999/xlink" width="500" zoomAndPan="magnify" viewBox="0 0 375 374.999991" height="500" preserveAspectRatio="xMidYMid meet" version="1.0"><path fill="#c2fbff" d="M 187.5 0 C 136.5625 0 130.203125 0.234375 110.203125 1.125 C 90.234375 2.0625 76.640625 5.203125 64.6875 9.84375 C 52.359375 14.625 41.890625 21.046875 31.46875 31.46875 C 21.046875 41.890625 14.609375 52.34375 9.84375 64.6875 C 5.203125 76.640625 2.046875 90.234375 1.125 110.203125 C 0.1875 130.203125 0 136.5625 0 187.5 C 0 238.4375 0.234375 244.796875 1.125 264.796875 C 2.0625 284.75 5.203125 298.359375 9.84375 310.3125 C 14.625 322.625 21.046875 333.109375 31.46875 343.53125 C 41.890625 353.9375 52.34375 360.390625 64.6875 365.15625 C 76.65625 369.78125 90.25 372.953125 110.203125 373.875 C 130.203125 374.8125 136.5625 375 187.5 375 C 238.4375 375 244.796875 374.765625 264.796875 373.875 C 284.75 372.9375 298.359375 369.78125 310.3125 365.15625 C 322.625 360.375 333.109375 353.9375 343.53125 343.53125 C 353.9375 333.109375 360.390625 322.671875 365.15625 310.3125 C 369.78125 298.359375 372.953125 284.75 373.875 264.796875 C 374.8125 244.796875 375 238.4375 375 187.5 C 375 136.5625 374.765625 130.203125 373.875 110.203125 C 372.9375 90.25 369.78125 76.625 365.15625 64.6875 C 360.375 52.359375 353.9375 41.890625 343.53125 31.46875 C 333.109375 21.046875 322.671875 14.609375 310.3125 9.84375 C 298.359375 5.203125 284.75 2.046875 264.796875 1.125 C 244.796875 0.1875 238.4375 0 187.5 0 Z M 187.5 33.75 C 237.546875 33.75 243.515625 34 263.28125 34.859375 C 281.5625 35.71875 291.484375 38.75 298.078125 41.34375 C 306.859375 44.734375 313.078125 48.796875 319.671875 55.34375 C 326.21875 61.90625 330.28125 68.140625 333.671875 76.921875 C 336.234375 83.515625 339.296875 93.4375 340.125 111.71875 C 341.015625 131.5 341.21875 137.4375 341.21875 187.5 C 341.21875 237.5625 340.984375 243.515625 340.0625 263.28125 C 339.109375 281.5625 336.0625 291.484375 333.484375 298.078125 C 329.984375 306.859375 326 313.078125 319.4375 319.671875 C 312.890625 326.21875 306.5625 330.28125 297.875 333.671875 C 291.3125 336.234375 281.234375 339.296875 262.953125 340.125 C 243.046875 341.015625 237.1875 341.21875 187.03125 341.21875 C 136.859375 341.21875 131 340.984375 111.109375 340.0625 C 92.8125 339.109375 82.734375 336.0625 76.171875 333.484375 C 67.28125 329.984375 61.171875 326 54.625 319.4375 C 48.046875 312.890625 43.84375 306.5625 40.5625 297.875 C 37.984375 291.3125 34.953125 281.234375 34 262.953125 C 33.296875 243.265625 33.046875 237.1875 33.046875 187.265625 C 33.046875 137.328125 33.296875 131.234375 34 111.3125 C 34.953125 93.03125 37.984375 82.96875 40.5625 76.40625 C 43.84375 67.5 48.046875 61.40625 54.625 54.828125 C 61.171875 48.28125 67.28125 44.0625 76.171875 40.796875 C 82.734375 38.203125 92.59375 35.15625 110.875 34.21875 C 130.796875 33.515625 136.65625 33.28125 186.796875 33.28125 Z M 187.5 91.21875 C 134.296875 91.21875 91.21875 134.34375 91.21875 187.5 C 91.21875 240.703125 134.34375 283.78125 187.5 283.78125 C 240.703125 283.78125 283.78125 240.65625 283.78125 187.5 C 283.78125 134.296875 240.65625 91.21875 187.5 91.21875 Z M 187.5 250 C 152.96875 250 125 222.03125 125 187.5 C 125 152.96875 152.96875 125 187.5 125 C 222.03125 125 250 152.96875 250 187.5 C 250 222.03125 222.03125 250 187.5 250 Z M 310.09375 87.421875 C 310.09375 99.84375 300 109.921875 287.59375 109.921875 C 275.171875 109.921875 265.09375 99.828125 265.09375 87.421875 C 265.09375 75.015625 275.1875 64.9375 287.59375 64.9375 C 299.984375 64.921875 310.09375 75.015625 310.09375 87.421875 Z M 310.09375 87.421875 " fill-opacity="1" fill-rule="nonzero"/></svg>